{"title":"The Offspring - All I Want.mp4","uid":8354186,"size":77014187,"categoryP":"video","categoryS":"music_videos","magnet":"?xt=urn:btih:9d9b7594009ef68c65028a08d4121adbfed4ef7b&amp;dn=The+Offspring+-+All+I+Want.mp4&amp;tr=udp%3A%2F%2Ftracker.openbittorrent.com%3A80&amp;tr=udp%3A%2F%2Fopen.demonii.com%3A1337&amp;tr=udp%3A%2F%2Ftracker.coppersurfer.tk%3A6969&amp;tr=udp%3A%2F%2Fexodus.desync.com%3A6969","seeders":1,"leechers":0,"uploader":"pepikJS","files":-1,"time":1365441759,"description":"The Offspring - All I Want.mp4\n\nDVDrip\n\n. . .\n\nGeneral\nFormat                                   : MPEG-4\nFormat profile                           : Base Media / Version 2\nCodec ID                                 : mp42\nFile size                                : 73.4 MiB\nDuration                                 : 1mn 56s\nOverall bit rate mode                    : Variable\nOverall bit rate                         : 5 267 Kbps\nEncoded date                             : UTC 2013-04-08 15:08:18\nTagged date                              : UTC 2013-04-08 15:08:19\nWriting application                      : mp4creator 1.4.4\n\nVideo\nID                                       : 1\nFormat                                   : AVC\nFormat/Info                              : Advanced Video Codec\nFormat profile                           : &lt;a class=&quot;__cf_email__&quot; href=&quot;/cdn-cgi/l/email-protection&quot; data-cfemail=&quot;054d6c626d4549362b35&quot;&gt;[email&amp;#160;protected]&lt;/a&gt;&lt;script cf-hash='f9e31' type=&quot;text/javascript&quot;&gt;\n/* &lt;![CDATA[ */!function(){try{var t=&quot;currentScript&quot;in document?document.currentScript:function(){for(var t=document.getElementsByTagName(&quot;script&quot;),e=t.length;e--;)if(t[e].getAttribute(&quot;cf-hash&quot;))return t[e]}();if(t&amp;&amp;t.previousSibling){var e,r,n,i,c=t.previousSibling,a=c.getAttribute(&quot;data-cfemail&quot;);if(a){for(e=&quot;&quot;,r=parseInt(a.substr(0,2),16),n=2;a.length-n;n+=2)i=parseInt(a.substr(n,2),16)^r,e+=String.fromCharCode(i);e=document.createTextNode(e),c.parentNode.replaceChild(e,c)}}}catch(u){}}();/* ]]&gt; */&lt;/script&gt;\nFormat settings, CABAC                   : Yes\nFormat settings, ReFrames                : 4 frames\nCodec ID                                 : avc1\nCodec ID/Info                            : Advanced Video Coding\nDuration                                 : 1mn 56s\nBit rate mode                            : Variable\nBit rate                                 : 4 996 Kbps\nWidth                                    : 720 pixels\nHeight                                   : 480 pixels\nDisplay aspect ratio                     : 3:2\nFrame rate mode                          : Constant\nFrame rate                               : 30.000 fps\nStandard                                 : NTSC\nColor space                              : YUV\nChroma subsampling                       : 4:2:0\nBit depth                                : 8 bits\nScan type                                : Progressive\nBits/(Pixel*Frame)                       : 0.482\nStream size                              : 69.7 MiB (95%)\n\nAudio\nID                                       : 2\nFormat                                   : AAC\nFormat/Info                              : Advanced Audio Codec\nFormat profile                           : LC\nCodec ID                                 : 40\nDuration                                 : 1mn 56s\nBit rate mode                            : Variable\nBit rate                                 : 265 Kbps\nMaximum bit rate                         : 292 Kbps\nChannel(s)                               : 2 channels\nChannel positions                        : Front: L R\nSampling rate                            : 48.0 KHz\nCompression mode                         : Lossy\nStream size                              : 3.72 MiB (5%)","torrent":{"xt":"urn:btih:9d9b7594009ef68c65028a08d4121adbfed4ef7b","amp;dn":"The+Offspring+-+All+I+Want.mp4","amp;tr":["udp%3A%2F%2Ftracker.openbittorrent.com%3A80","udp%3A%2F%2Fopen.demonii.com%3A1337","udp%3A%2F%2Ftracker.coppersurfer.tk%3A6969","udp%3A%2F%2Fexodus.desync.com%3A6969"],"infoHash":"9d9b7594009ef68c65028a08d4121adbfed4ef7b","infoHashBuffer":{"type":"Buffer","data":[157,155,117,148,0,158,246,140,101,2,138,8,212,18,26,219,254,212,239,123]},"announce":[],"urlList":[]}}